<svg xmlns="http://www.w3.org/2000/svg" viewBox="0 0 512 512">
  <path fill="currentColor" transform="translate(0 512) scale(1 -1)" d="M467 322 445 416C440 435 423 448 404 448H108C89 448 72 435 67 416L45 322C40 301 44 278 58 261C60 259 62 257 64 255V107C64 83 83 64 107 64H405C429 64 448 83 448 107V255C450 257 452 259 454 261C468 278 473 301 467 322ZM403 406 426 312C428 303 426 294 420 287C417 284 411 277 400 277C387 277 376 288 375 302L362 405L403 406ZM277 405H319L331 309C332 301 329 292 324 286C319 281 312 277 303 277C289 277 277 290 277 305V405ZM181 309 193 405H235V305C235 290 223 277 207 277C200 277 193 281 188 286C183 292 180 301 181 309ZM86 312 108 405H150L137 302C136 288 125 277 112 277C101 277 95 284 92 287C86 294 84 303 86 312ZM107 107V235C108 235 110 235 112 235C130 235 147 242 159 255C172 242 189 235 209 235C227 235 244 242 256 255C269 242 286 235 305 235C323 235 340 242 353 255C365 242 382 235 401 235C402 235 404 235 406 235V107H107Z"/>
</svg>
